<svg width="626" height="626" xmlns="http://www.w3.org/2000/svg">

 <g>
  <title>background</title>
  <rect fill="none" id="canvas_background" height="626" width="626" y="-1" x="-1"/>
 </g>
 <g>
  <title>Layer 1</title>
  <g id="#691f6fff">
   <path id="svg_1" d="m284.95,2.01c10.63,-1.29 21.36,-0.96 32.04,-1.01c9.04,-0.07 18.09,0.25 27.05,1.45c22.03,2.28 43.84,6.86 64.92,13.67c39.51,12.96 76.39,33.87 107.68,61.25c29.45,25.73 54.1,56.98 72,91.78c16.58,32.08 27.52,67.09 31.96,102.94c1.8,12.21 2.62,24.56 2.4,36.91c-0.03,10.07 0.24,20.2 -1.06,30.21c-2.22,24.04 -7.14,47.84 -14.74,70.77c-12.39,36.94 -31.74,71.53 -56.86,101.33c-23.77,28.23 -52.53,52.26 -84.64,70.47c-43.07,24.53 -92.15,38.35 -141.65,40.2c-14.02,-0.1 -28.13,0.59 -42.05,-1.35c-4.68,-0.16 -9.25,-1.26 -13.91,-1.6c-38.15,-5.61 -75.3,-18.16 -108.82,-37.26c-32.09,-18.21 -60.83,-42.23 -84.59,-70.45c-31.42,-37.25 -53.86,-82.03 -64.8,-129.52c-5.19,-23.2 -8.43,-46.96 -7.88,-70.77c-0.27,-13.06 0.52,-26.13 2.41,-39.04c7.22,-58.26 31.69,-114.21 69.36,-159.22c38.43,-46.27 90.54,-81.08 148.16,-98.45c20.49,-6.33 41.7,-10.24 63.02,-12.31m5.82,29.32c-35.23,2.52 -69.9,12.13 -101.62,27.62c-39.11,19.1 -73.56,47.51 -100.01,82.05c-37.96,49.37 -58.76,111.72 -57.61,173.99c0.46,49.97 14.7,99.8 40.81,142.44c18.41,30.3 42.68,56.97 70.91,78.39c33.45,25.27 72.58,43.07 113.73,51.18c35.87,7.26 73.11,7.32 109.04,0.45c42.79,-8.28 83.56,-26.71 118.03,-53.39c27.22,-21.1 50.67,-47.11 68.56,-76.55c22.46,-36.69 36.21,-78.67 39.81,-121.52c5.33,-57.7 -8.08,-116.96 -37.62,-166.84c-18.64,-31.75 -43.68,-59.67 -72.99,-81.92c-31.94,-24.18 -69.1,-41.46 -108.24,-50.08c-15.31,-3.58 -30.98,-5.35 -46.62,-6.51c-12.05,0.06 -24.2,-0.74 -36.18,0.69z" fill="#691f6f"/>
   <path id="svg_2" d="m226.98,75.06c39.85,-14.45 83.34,-18.32 125.16,-11.79c42.84,6.71 83.76,24.89 117.55,52.04c22.99,18.73 43.09,41.18 58.28,66.7c19.97,33.04 32.09,70.81 35.03,109.29c3.31,41.76 -3.67,84.39 -20.93,122.62c-27.23,61.71 -80.54,111.26 -144.04,134.03c-26.91,9.59 -55.44,14.92 -84.04,14.73c-42.91,0.64 -85.87,-10.46 -123.37,-31.29c-30.22,-16.68 -56.72,-39.87 -77.79,-67.16c-27.09,-35.24 -44.5,-77.83 -49.81,-121.97c-4.08,-34.84 -1.32,-70.58 9.02,-104.15c12.27,-40.36 34.9,-77.61 65.38,-106.8c25.26,-24.99 56.19,-44.13 89.56,-56.25m82.43,20.6c-7.96,1.36 -14.35,9.22 -13.22,17.39c-0.35,11.46 13.92,19.52 23.74,13.83c9.79,-4.37 12.04,-18.82 4.64,-26.3c-3.79,-4.14 -9.68,-5.9 -15.16,-4.92m-97.42,26.13c-8.32,0.55 -15.82,7.76 -15.59,16.29c-1.01,10.62 10.64,19.71 20.72,16.56c8.31,-1.99 14.12,-11.2 12.12,-19.54c-1.67,-7.86 -9.28,-13.62 -17.25,-13.31m195.11,1.18c-6.8,2.07 -11.92,8.86 -11.77,16.01c-0.09,8.1 6.68,15.4 14.61,16.49c9.73,1.45 19.7,-7.53 18.63,-17.46c0,-10.42 -11.67,-18.41 -21.47,-15.04m-157.8,8.37c0,1.95 1.39,3.64 1.96,5.49c6.4,26.26 12.96,52.51 20.05,78.6l-1.72,1.05c0.83,0.16 1.49,-0.24 2.02,-0.86c0.35,6.1 3.18,12.06 8.56,15.26c0.66,1.72 1.3,3.45 1.95,5.19c5.91,16.25 12.12,32.41 17.83,48.74c-6.85,3.59 -12.59,9.52 -15.12,16.91c-3.31,9.72 -1.5,21.27 5.47,28.99c4.18,5 10.08,8.11 16.26,9.9c-0.08,4.88 -0.09,9.77 0,14.65c-9.1,6.71 -10.48,20.97 -3.31,29.56c2.66,3.37 7.47,5.59 11.65,3.79c6.87,-2.6 10.28,-10.63 9.78,-17.6c0.33,-6.31 -3.27,-11.89 -7.69,-16.03c-0.14,-4.86 -0.25,-9.76 0.2,-14.61c1.12,-0.05 2.25,-0.08 3.39,-0.12c3.15,9.62 7.51,18.9 10.16,28.63c-5.49,9.34 -1.7,23.06 8.34,27.59c4.89,2.49 10.85,-0.32 13.28,-4.93c5.49,-10.14 -0.85,-24.47 -12.1,-27.18c-2.28,-6.51 -4.79,-12.93 -7.08,-19.43c-1.22,-3.04 -2.23,-6.15 -3.6,-9.12c4.94,-3.84 8.98,-8.93 11,-14.89c2.37,-7.69 1.92,-16.4 -2.15,-23.46c-4.17,-8.02 -12.38,-13.6 -21.26,-15.01c-0.55,-11.78 -0.26,-23.59 -0.16,-35.38c4.87,-3.47 11.58,-8.19 10.09,-15.08c-4.04,-23.27 -9.59,-46.24 -15,-69.22l-1.11,1.28c-3.03,13.32 -6.22,26.6 -9.08,39.96c-1.98,9.64 -4.3,19.23 -5.53,29c-0.78,6.7 5.49,10.77 10.18,14.23c-0.19,8.01 0.1,16.03 -0.12,24.04c-0.86,-1.37 -1.6,-2.81 -2.11,-4.33c-4.62,-13.03 -9.7,-25.91 -14.16,-38.99c0.77,-3.98 2.08,-8.15 -0.18,-11.97c-12.2,-27.19 -25.58,-53.84 -38.17,-80.84c-0.72,-1.24 -0.9,-3.5 -2.52,-3.81m-112.23,63.34c-7.51,1.64 -14.05,8.38 -13.75,16.35c-0.6,9.34 8.38,17.99 17.73,16.73c10.33,-0.08 18.28,-11.9 14.71,-21.54c-2.46,-7.68 -10.71,-12.8 -18.69,-11.54m343.45,1.09c-6.8,1.82 -12.12,8.12 -12.35,15.22c-0.75,8.88 6.99,17.09 15.74,17.61c8.74,0.59 17.13,-6.8 17.53,-15.58c0.58,-6.67 -3.53,-13.3 -9.51,-16.14c-3.45,-1.94 -7.64,-1.65 -11.41,-1.11m-372,98.96c-6.89,2.07 -12.49,8.89 -12.07,16.26c-0.37,9.15 8.49,17.21 17.5,16.53c9.39,-0.48 17.4,-10 15.54,-19.4c-1.43,-9.44 -11.74,-16.18 -20.97,-13.39m397.37,0.96c-9.43,3.06 -14.37,15.22 -9.15,23.82c4.67,9.56 19.3,11.39 26.37,3.59c6.61,-6.07 6.36,-17.88 -0.49,-23.68c-4.23,-4.61 -10.99,-4.88 -16.73,-3.73m-368.34,98.16c-9.64,1.02 -17.22,11.76 -13.97,21.1c1.84,7.1 8.96,12.59 16.39,11.95c8.12,0.3 15.29,-6.67 16.17,-14.56c1.44,-10.16 -8.42,-20.03 -18.59,-18.49m343.39,0.87c-6.06,1.3 -11.1,6.22 -12.63,12.21c-2.07,6.85 1.51,14.6 7.47,18.27c6.56,4.31 16.21,2.79 21.22,-3.24c3.39,-3.98 5.26,-9.74 3.62,-14.86c-1.9,-8.46 -11.17,-14.53 -19.68,-12.38m-271.77,72.36c-5.69,1.1 -10.68,5.27 -12.51,10.81c-3.77,8.62 2.4,19.27 11.2,21.6c9.71,3.34 21.28,-5.19 20.93,-15.47c0.96,-10.17 -9.75,-19.28 -19.62,-16.94m198.25,0.56c-8.64,2.06 -14.8,11.86 -12.08,20.49c2.25,8.71 12.19,14.58 20.85,11.63c7.89,-2.2 13.5,-10.95 11.73,-19c-1.74,-9.05 -11.46,-15.72 -20.5,-13.12m-112.21,42.38c-0.26,4.68 1.87,9.3 5.29,12.45c5.66,5.61 15.63,5.89 21.73,0.85c3.11,-2.27 4.58,-5.94 6.12,-9.32c1.64,-8.47 -3.76,-17.72 -12.27,-19.77c-9.89,-3.16 -21.15,5.48 -20.87,15.79z" fill="#691f6f"/>
  </g>
 </g>
</svg>